# xmcd
#
# Track frame offsets:
#	150
#	8062
#	28079
#	41815
#	59937
#	68634
#	84435
#	108656
#	125563
#	143927
#	159257
#
# Disc length: 2648 seconds
#
# Revision: 1
# Processed by: cddbd v1.5.1PL0 Copyright (c) Steve Scherf et al.
# Submitted via: audiograbber 1.83.01
#
DISCID=990a560b
DTITLE=Okay - Low Road
DYEAR=2005
DGENRE=Rock
TTITLE0=Bloody
TTITLE1=Now
TTITLE2=Holy War
TTITLE3=We
TTITLE4=Devil
TTITLE5=Replace
TTITLE6=Oh
TTITLE7=Game
TTITLE8=Roman
TTITLE9=Hoot
TTITLE10=Bullseye
EXTD=
EXTT0=
EXTT1=
EXTT2=
EXTT3=
EXTT4=
EXTT5=
EXTT6=
EXTT7=
EXTT8=
EXTT9=
EXTT10=
PLAYORDER=
